<?xml version="1.0" encoding="UTF-8"?>
<svg width="623px" height="42px" viewBox="0 0 623 42" version="1.1" xmlns="http://www.w3.org/2000/svg" xmlns:xlink="http://www.w3.org/1999/xlink">
    <!-- Generator: Sketch 48.2 (47327) - http://www.bohemiancoding.com/sketch -->
    <title>Path 2 Copy</title>
    <desc>Created with Sketch.</desc>
    <defs></defs>
    <g id="lillian-le-pham-" stroke="none" stroke-width="1" fill="none" fill-rule="evenodd" transform="translate(0.000000, -645.000000)">
        <path d="M302.604782,354.900303 C297.182584,358.816869 296.970203,389.630733 302.399823,396.822504 C311.061488,408.295263 327.044302,402.113 323.649305,454.794201 C322.19211,477.405952 303.773335,496.196899 303.150336,497.263047 C301.966614,499.288769 289.522899,515.220938 290.617662,534.751957 C290.794658,537.909626 291.691882,540.041644 292.427636,541.847409 C294.189166,546.170742 296.05153,550.087879 298.027854,552.938835 C304.659013,562.504641 316.031552,569.192666 321.75343,590.810397 C326.081385,607.161773 315.757239,638.158199 315.230893,641.189195 C311.975933,659.933084 308.940761,688.151321 308.174859,710.410844 C307.650238,725.657999 307.690423,741.13987 307.859885,756.493013 C308.173388,784.896195 325.603321,776.767157 329.110875,811.20124 C329.955107,819.489175 331.165615,833.611628 330.182391,842.22334 C329.382968,849.225205 327.314053,853.318192 326.119369,859.535586 C322.719162,877.231007 321.230359,905.371597 320.822069,925.078315 C320.510887,940.09801 319.879115,955.780284 321.024015,970.25852 C321.429673,975.388414 323.53638,976.192185 324.964965,977.468767 C326.300962,978.662611 327.716848,977.468767 329.09279,977.468767" id="Path-2-Copy" stroke="#F4ECE9" transform="translate(310.549531, 666.449834) rotate(90.000000) translate(-310.549531, -666.449834) "></path>
    </g>
</svg>